<svg id="Layer_1" data-name="Layer 1" xmlns="http://www.w3.org/2000/svg" viewBox="0 0 841.89 260.92"><defs><style>.cls-1{fill:#231f20;}.cls-2{fill:#fff;}</style></defs><rect class="cls-1" width="841.89" height="260.92"/><path class="cls-2" d="M196.94,122H170l-5.14,12.43H151.13l25.85-58h13.25l25.93,58H202.08Zm-4.22-10.19-9.2-22.2-9.19,22.2Z"/><path class="cls-2" d="M230.67,132.14A22.07,22.07,0,0,1,221.8,124a23.65,23.65,0,0,1,0-23.69,22.07,22.07,0,0,1,8.87-8.16,27.4,27.4,0,0,1,12.8-2.94,24.82,24.82,0,0,1,12.3,2.94,17.39,17.39,0,0,1,7.66,8.41l-10,5.38q-3.48-6.12-10-6.13a11.34,11.34,0,0,0-8.36,3.32q-3.32,3.3-3.32,9t3.32,9a11.34,11.34,0,0,0,8.36,3.32q6.63,0,10-6.13l10,5.47a17.78,17.78,0,0,1-7.66,8.28,24.51,24.51,0,0,1-12.3,3A27.4,27.4,0,0,1,230.67,132.14Z"/><path class="cls-2" d="M280.09,132.14a22.47,22.47,0,0,1,0-40,27.43,27.43,0,0,1,12.8-2.94,24.83,24.83,0,0,1,12.31,2.94,17.44,17.44,0,0,1,7.66,8.41l-10,5.38q-3.48-6.12-10-6.13a11.35,11.35,0,0,0-8.37,3.32q-3.31,3.3-3.31,9t3.31,9a11.35,11.35,0,0,0,8.37,3.32q6.63,0,10-6.13l10,5.47a17.83,17.83,0,0,1-7.66,8.28,24.53,24.53,0,0,1-12.31,3A27.43,27.43,0,0,1,280.09,132.14Z"/><path class="cls-2" d="M364.19,115.78H330.47a10.52,10.52,0,0,0,4.31,6.54,14.2,14.2,0,0,0,8.45,2.41,17.09,17.09,0,0,0,6.17-1,14.83,14.83,0,0,0,5-3.27l6.88,7.46q-6.3,7.2-18.39,7.2a29.11,29.11,0,0,1-13.34-2.94,21.6,21.6,0,0,1-8.95-8.16,22.56,22.56,0,0,1-3.14-11.84,22.79,22.79,0,0,1,3.1-11.81,21.73,21.73,0,0,1,8.54-8.2,26.44,26.44,0,0,1,24-.13,20.54,20.54,0,0,1,8.32,8.08,24.05,24.05,0,0,1,3,12.22C364.44,112.47,364.36,113.63,364.19,115.78ZM334,101.45a10.56,10.56,0,0,0-3.64,6.79h21.95a10.74,10.74,0,0,0-3.64-6.75A10.93,10.93,0,0,0,341.33,99,11.13,11.13,0,0,0,334,101.45Z"/><path class="cls-2" d="M377.31,133.72a28.67,28.67,0,0,1-8.45-3.44l4.31-9.28a27.09,27.09,0,0,0,7.21,3.11,30.15,30.15,0,0,0,8.28,1.2q8.2,0,8.2-4.06c0-1.27-.74-2.18-2.24-2.74a32.9,32.9,0,0,0-6.87-1.4,66.8,66.8,0,0,1-9-1.91,14,14,0,0,1-6.17-3.81q-2.61-2.73-2.61-7.79a12.18,12.18,0,0,1,2.44-7.49,15.74,15.74,0,0,1,7.13-5.1,30.51,30.51,0,0,1,11.06-1.82,43.45,43.45,0,0,1,9.4,1,26.34,26.34,0,0,1,7.74,2.86l-4.3,9.2A25.76,25.76,0,0,0,390.57,99a13.11,13.11,0,0,0-6.22,1.16,3.42,3.42,0,0,0-2.07,3,3,3,0,0,0,2.24,2.89,39,39,0,0,0,7.12,1.58,76.63,76.63,0,0,1,8.95,2,13.49,13.49,0,0,1,6.05,3.76q2.57,2.74,2.57,7.63a11.74,11.74,0,0,1-2.49,7.37,15.91,15.91,0,0,1-7.25,5,32.24,32.24,0,0,1-11.31,1.78A43.3,43.3,0,0,1,377.31,133.72Z"/><path class="cls-2" d="M421.34,133.72a28.67,28.67,0,0,1-8.45-3.44L417.2,121a27.09,27.09,0,0,0,7.21,3.11,30.26,30.26,0,0,0,8.28,1.2q8.21,0,8.21-4.06c0-1.27-.75-2.18-2.24-2.74a32.88,32.88,0,0,0-6.88-1.4,67.48,67.48,0,0,1-9-1.91,14.07,14.07,0,0,1-6.17-3.81Q414,108.66,414,103.6a12.19,12.19,0,0,1,2.45-7.49,15.65,15.65,0,0,1,7.12-5.1,30.55,30.55,0,0,1,11.06-1.82,43.38,43.38,0,0,1,9.4,1,26.52,26.52,0,0,1,7.75,2.86l-4.31,9.2A25.71,25.71,0,0,0,434.6,99a13.09,13.09,0,0,0-6.21,1.16,3.43,3.43,0,0,0-2.08,3,3,3,0,0,0,2.24,2.89,39.1,39.1,0,0,0,7.13,1.58,76.86,76.86,0,0,1,8.94,2,13.44,13.44,0,0,1,6.05,3.76q2.56,2.74,2.57,7.63a11.74,11.74,0,0,1-2.49,7.37,15.85,15.85,0,0,1-7.25,5,32.18,32.18,0,0,1-11.3,1.78A43.44,43.44,0,0,1,421.34,133.72Z"/><path class="cls-2" d="M460,81.57a7,7,0,0,1,0-10.28,8.19,8.19,0,0,1,5.8-2.07,8.46,8.46,0,0,1,5.8,2,6.38,6.38,0,0,1,2.23,5,7,7,0,0,1-2.23,5.34,9.08,9.08,0,0,1-11.6,0Zm-.67,8.28H472.3v44.57H459.37Z"/><path class="cls-2" d="M521.15,92.05a20.5,20.5,0,0,1,8,8,26.51,26.51,0,0,1,0,24.11,20.5,20.5,0,0,1-8,8,22.69,22.69,0,0,1-11.31,2.86q-9.19,0-14-5.8v5.14H483.5V73h12.92V94.57q4.89-5.38,13.42-5.38A22.69,22.69,0,0,1,521.15,92.05Zm-5.39,29.07a12.47,12.47,0,0,0,3.19-9,12.48,12.48,0,0,0-3.19-9,11.59,11.59,0,0,0-16.32,0,12.52,12.52,0,0,0-3.19,9,12.51,12.51,0,0,0,3.19,9,11.59,11.59,0,0,0,16.32,0Z"/><path class="cls-2" d="M540.5,81.57a7,7,0,0,1,0-10.28,8.21,8.21,0,0,1,5.8-2.07,8.42,8.42,0,0,1,5.8,2,6.38,6.38,0,0,1,2.24,5,7,7,0,0,1-2.24,5.34,8.09,8.09,0,0,1-5.8,2.12A8.21,8.21,0,0,1,540.5,81.57Zm-.66,8.28h12.92v44.57H539.84Z"/><path class="cls-2" d="M563,73h12.92v61.47H563Z"/><path class="cls-2" d="M585.74,81.57a7,7,0,0,1,0-10.28,8.19,8.19,0,0,1,5.8-2.07,8.44,8.44,0,0,1,5.8,2,6.38,6.38,0,0,1,2.24,5,7,7,0,0,1-2.24,5.34,8.11,8.11,0,0,1-5.8,2.12A8.19,8.19,0,0,1,585.74,81.57Zm-.66,8.28H598v44.57H585.08Z"/><path class="cls-2" d="M637.94,132.27a13.27,13.27,0,0,1-4.68,2.11,23.6,23.6,0,0,1-5.84.7q-7.95,0-12.3-4.06t-4.35-11.93v-18.3H603.9v-10h6.87V80h12.92V90.84H634.8v10H623.69v18.14a6.11,6.11,0,0,0,1.45,4.35,5.4,5.4,0,0,0,4.11,1.53,8.24,8.24,0,0,0,5.21-1.66Z"/><path class="cls-2" d="M690.76,89.85l-20.13,47.3q-3.06,7.71-7.58,10.86a18.62,18.62,0,0,1-10.89,3.14,22.87,22.87,0,0,1-6.88-1.07,15.13,15.13,0,0,1-5.55-3l4.72-9.19a11.28,11.28,0,0,0,3.44,2.07,10.66,10.66,0,0,0,3.85.75,6.82,6.82,0,0,0,4.31-1.29,11,11,0,0,0,3-4.26l.17-.42-19.3-44.9h13.33l12.51,30.24,12.59-30.24Z"/><path class="cls-2" d="M172.72,170.1c1.94,1.71,2.91,4.31,2.91,7.77v13.31H169.3v-2.9c-1.27,2.16-3.64,3.25-7.11,3.25a11.16,11.16,0,0,1-4.66-.91,7,7,0,0,1-3-2.52,6.57,6.57,0,0,1-1-3.64,6.06,6.06,0,0,1,2.45-5.11c1.63-1.24,4.15-1.87,7.56-1.87h5.37a4.3,4.3,0,0,0-1.34-3.4,6,6,0,0,0-4-1.19,11.78,11.78,0,0,0-3.66.59,9.61,9.61,0,0,0-3.06,1.58l-2.42-4.73a14.69,14.69,0,0,1,4.57-2.08,20.51,20.51,0,0,1,5.48-.73C168,167.52,170.79,168.38,172.72,170.1ZM167,186.17a4.36,4.36,0,0,0,1.9-2.36v-2.38h-4.63c-2.78,0-4.16.91-4.16,2.73a2.43,2.43,0,0,0,1,2.06,4.6,4.6,0,0,0,2.79.76A5.85,5.85,0,0,0,167,186.17Z"/><path class="cls-2" d="M184.43,190.81A14.73,14.73,0,0,1,180,189l2.25-4.85a14.08,14.08,0,0,0,3.77,1.62,15.82,15.82,0,0,0,4.34.63q4.29,0,4.29-2.12a1.5,1.5,0,0,0-1.17-1.43,17.08,17.08,0,0,0-3.6-.74,35.61,35.61,0,0,1-4.72-1,7.28,7.28,0,0,1-3.23-2,5.66,5.66,0,0,1-1.37-4.07,6.38,6.38,0,0,1,1.28-3.92,8.21,8.21,0,0,1,3.73-2.67,15.81,15.81,0,0,1,5.78-.95,22.75,22.75,0,0,1,4.92.54,13.86,13.86,0,0,1,4.06,1.49l-2.26,4.81a13.51,13.51,0,0,0-6.72-1.73,6.79,6.79,0,0,0-3.25.61A1.77,1.77,0,0,0,187,174.8a1.54,1.54,0,0,0,1.17,1.51,20.43,20.43,0,0,0,3.73.83,40.23,40.23,0,0,1,4.68,1,6.94,6.94,0,0,1,3.16,2,5.57,5.57,0,0,1,1.35,4,6.17,6.17,0,0,1-1.3,3.85,8.31,8.31,0,0,1-3.8,2.62,16.66,16.66,0,0,1-5.91.94A22.5,22.5,0,0,1,184.43,190.81Z"/><path class="cls-2" d="M233.32,170.1c1.94,1.71,2.9,4.31,2.9,7.77v13.31H229.9v-2.9c-1.27,2.16-3.64,3.25-7.11,3.25a11.13,11.13,0,0,1-4.66-.91,7,7,0,0,1-3-2.52,6.49,6.49,0,0,1-1-3.64,6.06,6.06,0,0,1,2.45-5.11c1.63-1.24,4.15-1.87,7.56-1.87h5.37a4.3,4.3,0,0,0-1.34-3.4,6,6,0,0,0-4-1.19,11.78,11.78,0,0,0-3.66.59,9.61,9.61,0,0,0-3.06,1.58l-2.43-4.73a14.85,14.85,0,0,1,4.58-2.08,20.46,20.46,0,0,1,5.48-.73Q230.42,167.52,233.32,170.1Zm-5.76,16.07a4.36,4.36,0,0,0,1.9-2.36v-2.38h-4.63c-2.78,0-4.16.91-4.16,2.73a2.45,2.45,0,0,0,1,2.06,4.63,4.63,0,0,0,2.8.76A5.88,5.88,0,0,0,227.56,186.17Z"/><path class="cls-2" d="M256.14,190.72a16.2,16.2,0,0,1-5.39-2.53l2.38-5.29a16.1,16.1,0,0,0,4.64,2.3,17.33,17.33,0,0,0,5.37.87,8.58,8.58,0,0,0,4.42-.89,2.67,2.67,0,0,0,1.43-2.36,2.25,2.25,0,0,0-.84-1.8,6.46,6.46,0,0,0-2.17-1.15c-.88-.29-2.07-.61-3.58-1a47.34,47.34,0,0,1-5.67-1.64,9.11,9.11,0,0,1-3.79-2.65,7.1,7.1,0,0,1-1.59-4.85,8.48,8.48,0,0,1,1.43-4.79,9.64,9.64,0,0,1,4.32-3.4,17.52,17.52,0,0,1,7-1.26,23,23,0,0,1,5.68.7,16.73,16.73,0,0,1,4.85,2l-2.17,5.33a16.87,16.87,0,0,0-8.4-2.38,7.86,7.86,0,0,0-4.36.95,2.91,2.91,0,0,0-1.41,2.51,2.45,2.45,0,0,0,1.63,2.32,24.86,24.86,0,0,0,5,1.5,52.3,52.3,0,0,1,5.68,1.64,9.51,9.51,0,0,1,3.79,2.6A7,7,0,0,1,276,182.3a8.26,8.26,0,0,1-1.45,4.74,9.7,9.7,0,0,1-4.36,3.4,17.69,17.69,0,0,1-7.06,1.26A24.49,24.49,0,0,1,256.14,190.72Z"/><path class="cls-2" d="M305.47,181.43H287.83a5.5,5.5,0,0,0,2.26,3.42,7.44,7.44,0,0,0,4.42,1.26,9,9,0,0,0,3.23-.54,7.79,7.79,0,0,0,2.62-1.71l3.6,3.9q-3.3,3.77-9.63,3.77a15.28,15.28,0,0,1-7-1.54,11.22,11.22,0,0,1-4.68-4.27,11.76,11.76,0,0,1-1.65-6.2,11.92,11.92,0,0,1,1.62-6.17,11.38,11.38,0,0,1,4.47-4.29,13.84,13.84,0,0,1,12.55-.07,10.73,10.73,0,0,1,4.35,4.23,12.52,12.52,0,0,1,1.58,6.39C305.6,179.7,305.56,180.3,305.47,181.43Zm-15.82-7.5a5.53,5.53,0,0,0-1.9,3.55h11.48a5.58,5.58,0,0,0-1.9-3.53,5.74,5.74,0,0,0-3.82-1.32A5.82,5.82,0,0,0,289.65,173.93Z"/><path class="cls-2" d="M320.37,168.38a12.26,12.26,0,0,1,4.74-.86v6.24c-.75-.06-1.25-.09-1.51-.09a6.15,6.15,0,0,0-4.55,1.63,6.54,6.54,0,0,0-1.65,4.87v11h-6.76V167.86h6.46v3.08A7.42,7.42,0,0,1,320.37,168.38Z"/><path class="cls-2" d="M356.5,167.86l-9.84,23.32h-7l-9.8-23.32h7l6.46,15.87L350,167.86Z"/><path class="cls-2" d="M362.08,163.53a3.67,3.67,0,0,1,0-5.37,4.25,4.25,0,0,1,3-1.09,4.41,4.41,0,0,1,3,1,3.34,3.34,0,0,1,1.17,2.6,3.69,3.69,0,0,1-1.17,2.8,4.77,4.77,0,0,1-6.07,0Zm-.35,4.33h6.76v23.32h-6.76Z"/><path class="cls-2" d="M379.88,190a11.54,11.54,0,0,1-4.64-4.27,12.34,12.34,0,0,1,0-12.4,11.45,11.45,0,0,1,4.64-4.26,14.28,14.28,0,0,1,6.69-1.54,12.92,12.92,0,0,1,6.44,1.54,9.15,9.15,0,0,1,4,4.39l-5.24,2.82a5.75,5.75,0,0,0-5.25-3.21,5.94,5.94,0,0,0-4.38,1.74,7.32,7.32,0,0,0,0,9.45,6,6,0,0,0,4.38,1.73,5.69,5.69,0,0,0,5.25-3.21l5.24,2.86a9.35,9.35,0,0,1-4,4.34,12.82,12.82,0,0,1-6.44,1.56A14.4,14.4,0,0,1,379.88,190Z"/><path class="cls-2" d="M423.85,181.43H406.22a5.45,5.45,0,0,0,2.25,3.42,7.44,7.44,0,0,0,4.42,1.26,9,9,0,0,0,3.23-.54,7.79,7.79,0,0,0,2.62-1.71l3.6,3.9q-3.3,3.77-9.62,3.77a15.29,15.29,0,0,1-7-1.54,11.34,11.34,0,0,1-4.68-4.27,12.48,12.48,0,0,1,0-12.37,11.29,11.29,0,0,1,4.46-4.29,13.84,13.84,0,0,1,12.55-.07,10.67,10.67,0,0,1,4.35,4.23,12.52,12.52,0,0,1,1.59,6.39C424,179.7,423.94,180.3,423.85,181.43ZM408,173.93a5.54,5.54,0,0,0-1.91,3.55h11.48a5.58,5.58,0,0,0-1.9-3.53,5.71,5.71,0,0,0-3.82-1.32A5.79,5.79,0,0,0,408,173.93Z"/></svg>