<svg id="Layer_1" data-name="Layer 1" xmlns="http://www.w3.org/2000/svg" viewBox="0 0 841.89 260.92"><defs><style>.cls-1{fill:none;}.cls-2{fill:#010101;}</style></defs><rect class="cls-1" width="841.89" height="260.92"/><path class="cls-2" d="M79.69,127.68a.81.81,0,0,0-1.08.49l-8.06,23.58-2,5.79a.81.81,0,0,0,.77,1.08H83.58a.82.82,0,0,0,.78-.56l4.26-13.17.2-.64h1.84a.76.76,0,0,0,.21,0l.66-.17a.82.82,0,0,0,.62-.87L91,131.4a.8.8,0,0,0-.68-.71A47.07,47.07,0,0,1,79.69,127.68Z"/><path class="cls-2" d="M127.23,151.75l-8-23.58a.81.81,0,0,0-1.08-.49,47.22,47.22,0,0,1-10.65,3,.8.8,0,0,0-.68.71l-1.13,11.78a.82.82,0,0,0,.62.87l.66.17a.76.76,0,0,0,.21,0H109l.21.64,4.26,13.17a.82.82,0,0,0,.77.56h14.25a.81.81,0,0,0,.77-1.08Z"/><path class="cls-2" d="M106.58,91.35a1.37,1.37,0,0,0-1.29-.92H92.5a1.37,1.37,0,0,0-1.3.92l-9.83,28.74a1.36,1.36,0,0,0,.83,1.72,49.81,49.81,0,0,0,16.42,2.71h.55a49.86,49.86,0,0,0,16.42-2.71,1.34,1.34,0,0,0,.82-1.72Zm-7.69,27.46a5.18,5.18,0,1,1,5.18-5.18A5.19,5.19,0,0,1,98.89,118.81Z"/><path class="cls-2" d="M169.67,143.89a17.17,17.17,0,0,1-1.31,4.34,18.87,18.87,0,0,1-6.36,7.91l0,0q-.69.48-1.47.93c-11.8,7.12-20.86,3.29-25.76-.28a16.14,16.14,0,0,1-4.06-3.76l0,0a7.47,7.47,0,0,1-1.35-3.1,1.8,1.8,0,0,1,.17-1c.62-1.37,2.55-4.68,5.25-1.19,0,0,6.58,10.18,16.15,7.37l.12,0a1.34,1.34,0,0,0,.68-.49.21.21,0,0,0,.07-.13c.18-.49.05-1.21-2.2-1.24,0,0-10.29.63-14.41-9.22a1.52,1.52,0,0,1-.07-.94c.27-1,1.11-3.11,3.52-2.78A3.46,3.46,0,0,1,141,141.9c1.4,2.29,5.3,7.33,11.31,5.19,0,0,7.21-2.44,5.48-13.51,0,0-1.49-8.94-13.22-5.78h-3.69a1.25,1.25,0,0,1-1.25-1.24v-8.24a1.2,1.2,0,0,1,.3-.81l11.16-13.15a1.16,1.16,0,0,0-.9-1.92H130.76a1.17,1.17,0,0,1-1.17-1.17V91.61a1.17,1.17,0,0,1,1.17-1.18h36.39a1.17,1.17,0,0,1,1.17,1.18v9a1.22,1.22,0,0,1-.25.73L154.5,118.5a.16.16,0,0,0,.14.27C157.39,118.61,173.73,118.64,169.67,143.89Z"/><path class="cls-2" d="M295,118.46H268.1L263,130.88H249.21l25.85-58h13.25l25.93,58H300.16Zm-4.22-10.19-9.2-22.2-9.19,22.2Z"/><path class="cls-2" d="M328.75,128.61a22.48,22.48,0,0,1,0-40,27.4,27.4,0,0,1,12.8-2.94,24.79,24.79,0,0,1,12.3,2.94A17.5,17.5,0,0,1,361.52,97l-10,5.39q-3.48-6.14-10-6.13a11.34,11.34,0,0,0-8.37,3.31q-3.32,3.32-3.31,9t3.31,9a11.34,11.34,0,0,0,8.37,3.31q6.63,0,10-6.13l10,5.47a17.81,17.81,0,0,1-7.67,8.28,24.49,24.49,0,0,1-12.3,3A27.4,27.4,0,0,1,328.75,128.61Z"/><path class="cls-2" d="M378.18,128.61a22.08,22.08,0,0,1-8.87-8.16,23.6,23.6,0,0,1,0-23.7,22,22,0,0,1,8.87-8.16A27.4,27.4,0,0,1,391,85.65a24.82,24.82,0,0,1,12.3,2.94A17.44,17.44,0,0,1,410.94,97l-10,5.39q-3.48-6.14-10-6.13a11.32,11.32,0,0,0-8.36,3.31q-3.31,3.32-3.32,9t3.32,9a11.32,11.32,0,0,0,8.36,3.31q6.63,0,10-6.13l10,5.47a17.74,17.74,0,0,1-7.66,8.28,24.52,24.52,0,0,1-12.3,3A27.4,27.4,0,0,1,378.18,128.61Z"/><path class="cls-2" d="M462.27,112.24H428.56a10.46,10.46,0,0,0,4.3,6.55,14.29,14.29,0,0,0,8.45,2.4,17.18,17.18,0,0,0,6.18-1,15.06,15.06,0,0,0,5-3.28l6.87,7.46q-6.28,7.2-18.39,7.21a29.07,29.07,0,0,1-13.33-2.94,21.61,21.61,0,0,1-8.95-8.16,22.48,22.48,0,0,1-3.15-11.85,22.82,22.82,0,0,1,3.11-11.81,21.77,21.77,0,0,1,8.53-8.2,25.06,25.06,0,0,1,12.14-2.94,24.8,24.8,0,0,1,11.84,2.82,20.56,20.56,0,0,1,8.33,8.08,24.11,24.11,0,0,1,3,12.21C462.52,108.93,462.44,110.09,462.27,112.24ZM432,97.91a10.57,10.57,0,0,0-3.65,6.8h21.95A10.69,10.69,0,0,0,446.7,98a10.92,10.92,0,0,0-7.29-2.52A11.13,11.13,0,0,0,432,97.91Z"/><path class="cls-2" d="M475.39,130.18a28.4,28.4,0,0,1-8.45-3.44l4.31-9.28a27.09,27.09,0,0,0,7.21,3.11,30.26,30.26,0,0,0,8.28,1.2q8.2,0,8.2-4.06a2.86,2.86,0,0,0-2.23-2.73,33.57,33.57,0,0,0-6.88-1.41,65.94,65.94,0,0,1-9-1.91,13.89,13.89,0,0,1-6.17-3.81q-2.61-2.73-2.61-7.78a12.2,12.2,0,0,1,2.45-7.5,15.72,15.72,0,0,1,7.12-5.1,30.55,30.55,0,0,1,11.06-1.82,43.39,43.39,0,0,1,9.4,1,26.24,26.24,0,0,1,7.75,2.86l-4.31,9.19a25.7,25.7,0,0,0-12.84-3.31,13,13,0,0,0-6.21,1.16,3.39,3.39,0,0,0-2.08,3,3,3,0,0,0,2.24,2.9,39.28,39.28,0,0,0,7.13,1.57,76.86,76.86,0,0,1,8.94,1.95,13.46,13.46,0,0,1,6.05,3.77q2.56,2.73,2.57,7.62a11.74,11.74,0,0,1-2.49,7.37,15.79,15.79,0,0,1-7.25,5,32.41,32.41,0,0,1-11.3,1.78A43.45,43.45,0,0,1,475.39,130.18Z"/><path class="cls-2" d="M519.43,130.18a28.29,28.29,0,0,1-8.45-3.44l4.31-9.28a27,27,0,0,0,7.2,3.11,30.27,30.27,0,0,0,8.29,1.2q8.19,0,8.2-4.06c0-1.27-.75-2.18-2.24-2.73a33.44,33.44,0,0,0-6.87-1.41,65.29,65.29,0,0,1-9-1.91,13.87,13.87,0,0,1-6.18-3.81c-1.74-1.82-2.6-4.41-2.6-7.78a12.19,12.19,0,0,1,2.44-7.5,15.78,15.78,0,0,1,7.12-5.1,30.55,30.55,0,0,1,11.06-1.82,43.55,43.55,0,0,1,9.41,1,26.17,26.17,0,0,1,7.74,2.86l-4.31,9.19a25.7,25.7,0,0,0-12.84-3.31,13,13,0,0,0-6.21,1.16,3.4,3.4,0,0,0-2.07,3,3,3,0,0,0,2.24,2.9,39.13,39.13,0,0,0,7.12,1.57,77.09,77.09,0,0,1,9,1.95,13.42,13.42,0,0,1,6,3.77q2.57,2.73,2.57,7.62a11.79,11.79,0,0,1-2.48,7.37,15.9,15.9,0,0,1-7.25,5,32.51,32.51,0,0,1-11.31,1.78A43.31,43.31,0,0,1,519.43,130.18Z"/><path class="cls-2" d="M558.12,78a7,7,0,0,1,0-10.27,8.19,8.19,0,0,1,5.8-2.07,8.43,8.43,0,0,1,5.8,2,6.4,6.4,0,0,1,2.24,5A7,7,0,0,1,569.72,78a8.1,8.1,0,0,1-5.8,2.11A8.19,8.19,0,0,1,558.12,78Zm-.66,8.28h12.92v44.57H557.46Z"/><path class="cls-2" d="M619.23,88.51a20.39,20.39,0,0,1,8,8,24.18,24.18,0,0,1,2.9,12,24.18,24.18,0,0,1-2.9,12.05,20.52,20.52,0,0,1-8,8,22.79,22.79,0,0,1-11.31,2.86q-9.2,0-14-5.8v5.13H581.58V69.41H594.5V91q4.89-5.39,13.42-5.39A22.69,22.69,0,0,1,619.23,88.51Zm-5.38,29.08a12.53,12.53,0,0,0,3.18-9,12.53,12.53,0,0,0-3.18-9,11.61,11.61,0,0,0-16.32,0,12.49,12.49,0,0,0-3.19,9,12.49,12.49,0,0,0,3.19,9,11.61,11.61,0,0,0,16.32,0Z"/><path class="cls-2" d="M638.59,78a7,7,0,0,1,0-10.27,8.18,8.18,0,0,1,5.79-2.07,8.42,8.42,0,0,1,5.8,2,6.4,6.4,0,0,1,2.24,5A7,7,0,0,1,650.18,78a8.09,8.09,0,0,1-5.8,2.11A8.18,8.18,0,0,1,638.59,78Zm-.67,8.28h12.93v44.57H637.92Z"/><path class="cls-2" d="M661,69.41H674v61.47H661Z"/><path class="cls-2" d="M683.82,78a7,7,0,0,1,0-10.27,8.21,8.21,0,0,1,5.8-2.07,8.42,8.42,0,0,1,5.8,2,6.4,6.4,0,0,1,2.24,5A7,7,0,0,1,695.42,78a8.09,8.09,0,0,1-5.8,2.11A8.21,8.21,0,0,1,683.82,78Zm-.66,8.28h12.92v44.57H683.16Z"/><path class="cls-2" d="M736,128.73a13.27,13.27,0,0,1-4.68,2.11,23.65,23.65,0,0,1-5.84.71q-8,0-12.31-4.06t-4.35-11.93V97.25H702V87.31h6.87V76.46h12.93V87.31h11.1v9.94h-11.1v18.14a6.06,6.06,0,0,0,1.45,4.35,5.36,5.36,0,0,0,4.1,1.53,8.35,8.35,0,0,0,5.22-1.65Z"/><path class="cls-2" d="M788.84,86.31l-20.13,47.31q-3.06,7.69-7.58,10.85a18.55,18.55,0,0,1-10.89,3.15,22.62,22.62,0,0,1-6.88-1.08,15.28,15.28,0,0,1-5.55-3l4.72-9.2a10.89,10.89,0,0,0,3.44,2.07,10.66,10.66,0,0,0,3.85.75,6.86,6.86,0,0,0,4.31-1.28,10.84,10.84,0,0,0,3-4.27l.17-.42L738,86.31h13.34l12.51,30.24,12.59-30.24Z"/><path class="cls-2" d="M186.34,138.76c1.37,6.84,5.72,9.83,12.7,9.83s9.94-3.1,9.94-8.08c0-5.54-2.91-7.95-13.23-10.65-16.41-4.35-20.47-11.09-20.47-20.28,0-11.87,7.87-19.92,22.14-19.92,16,0,22.4,9.71,23.26,19.67H207.54c-.63-4.19-2.68-8.74-10.46-8.74-5.29,0-8.48,2.47-8.48,7.3s2.56,6.66,12.3,9.21c17.54,4.66,21.39,12,21.39,21.62,0,12.43-8.33,21-24.28,21-15.3,0-23.37-8.51-24.81-20.92Z"/><path class="cls-2" d="M270.8,166.56q2.91,2.58,2.91,7.78v13.3h-6.33v-2.9q-1.9,3.25-7.11,3.25a11,11,0,0,1-4.66-.91,7,7,0,0,1-3-2.51,6.59,6.59,0,0,1-1-3.64,6.09,6.09,0,0,1,2.45-5.12q2.44-1.86,7.56-1.86H267a4.28,4.28,0,0,0-1.35-3.4,5.88,5.88,0,0,0-4-1.2,11.78,11.78,0,0,0-3.66.59,9.65,9.65,0,0,0-3.05,1.58l-2.43-4.72a14.46,14.46,0,0,1,4.57-2.08,20.58,20.58,0,0,1,5.48-.74C266.09,164,268.87,164.84,270.8,166.56ZM265,182.64a4.41,4.41,0,0,0,1.91-2.36v-2.39h-4.64q-4.15,0-4.16,2.73a2.42,2.42,0,0,0,1,2.06,4.55,4.55,0,0,0,2.79.76A5.94,5.94,0,0,0,265,182.64Z"/><path class="cls-2" d="M282.51,187.28a15,15,0,0,1-4.42-1.8l2.26-4.86a14,14,0,0,0,3.77,1.63,15.75,15.75,0,0,0,4.33.63q4.29,0,4.29-2.13a1.51,1.51,0,0,0-1.17-1.43,17.2,17.2,0,0,0-3.6-.73,35.78,35.78,0,0,1-4.72-1,7.41,7.41,0,0,1-3.23-2,5.7,5.7,0,0,1-1.36-4.08,6.33,6.33,0,0,1,1.28-3.92,8.25,8.25,0,0,1,3.72-2.67,16,16,0,0,1,5.79-1,22.82,22.82,0,0,1,4.92.54,13.61,13.61,0,0,1,4.05,1.5l-2.25,4.81a13.44,13.44,0,0,0-6.72-1.74,6.86,6.86,0,0,0-3.25.61,1.81,1.81,0,0,0-1.09,1.56,1.56,1.56,0,0,0,1.17,1.52,20.82,20.82,0,0,0,3.73.82,40.23,40.23,0,0,1,4.68,1,7.06,7.06,0,0,1,3.17,2,5.63,5.63,0,0,1,1.34,4,6.16,6.16,0,0,1-1.3,3.86,8.36,8.36,0,0,1-3.79,2.62,17,17,0,0,1-5.92.93A23,23,0,0,1,282.51,187.28Z"/><path class="cls-2" d="M331.4,166.56q2.91,2.58,2.91,7.78v13.3H328v-2.9q-1.91,3.25-7.11,3.25a11,11,0,0,1-4.66-.91,7,7,0,0,1-3-2.51,6.59,6.59,0,0,1-1-3.64,6.09,6.09,0,0,1,2.45-5.12q2.44-1.86,7.56-1.86h5.38a4.28,4.28,0,0,0-1.35-3.4,5.88,5.88,0,0,0-4-1.2,11.78,11.78,0,0,0-3.66.59,9.65,9.65,0,0,0-3.05,1.58L313,166.8a14.46,14.46,0,0,1,4.57-2.08,20.52,20.52,0,0,1,5.48-.74C326.69,164,329.47,164.84,331.4,166.56Zm-5.76,16.08a4.41,4.41,0,0,0,1.91-2.36v-2.39h-4.64q-4.16,0-4.16,2.73a2.42,2.42,0,0,0,1,2.06,4.55,4.55,0,0,0,2.79.76A5.94,5.94,0,0,0,325.64,182.64Z"/><path class="cls-2" d="M354.23,187.19a16.35,16.35,0,0,1-5.4-2.54l2.38-5.28a16.08,16.08,0,0,0,4.64,2.29,17.33,17.33,0,0,0,5.37.87,8.65,8.65,0,0,0,4.43-.89,2.69,2.69,0,0,0,1.43-2.36,2.28,2.28,0,0,0-.85-1.8,6.37,6.37,0,0,0-2.17-1.15c-.88-.29-2.07-.6-3.57-1a49.29,49.29,0,0,1-5.68-1.65,9.24,9.24,0,0,1-3.79-2.64,7.13,7.13,0,0,1-1.58-4.86,8.4,8.4,0,0,1,1.43-4.79,9.61,9.61,0,0,1,4.31-3.4,17.56,17.56,0,0,1,7-1.25,23.43,23.43,0,0,1,5.68.69,16.78,16.78,0,0,1,4.85,2l-2.16,5.33a16.94,16.94,0,0,0-8.41-2.38,7.94,7.94,0,0,0-4.36,1,2.93,2.93,0,0,0-1.41,2.52,2.47,2.47,0,0,0,1.63,2.32,25.89,25.89,0,0,0,5,1.49,49.29,49.29,0,0,1,5.68,1.65,9.34,9.34,0,0,1,3.79,2.6,6.94,6.94,0,0,1,1.58,4.81,8.26,8.26,0,0,1-1.45,4.74,9.81,9.81,0,0,1-4.35,3.41,17.92,17.92,0,0,1-7.07,1.25A24.72,24.72,0,0,1,354.23,187.19Z"/><path class="cls-2" d="M403.56,177.89H385.92a5.48,5.48,0,0,0,2.25,3.43,7.53,7.53,0,0,0,4.42,1.25,9,9,0,0,0,3.23-.54,7.79,7.79,0,0,0,2.62-1.71l3.6,3.9q-3.3,3.76-9.62,3.77a15.17,15.17,0,0,1-7-1.54,11.27,11.27,0,0,1-4.68-4.27,11.72,11.72,0,0,1-1.65-6.19,11.84,11.84,0,0,1,1.63-6.18,11.29,11.29,0,0,1,4.46-4.29,13.84,13.84,0,0,1,12.55-.07,10.73,10.73,0,0,1,4.35,4.23,12.52,12.52,0,0,1,1.59,6.39C403.69,176.16,403.64,176.77,403.56,177.89Zm-15.82-7.5a5.56,5.56,0,0,0-1.91,3.56h11.49a5.57,5.57,0,0,0-5.73-4.86A5.84,5.84,0,0,0,387.74,170.39Z"/><path class="cls-2" d="M418.45,164.85a12.09,12.09,0,0,1,4.75-.87v6.24c-.75-.06-1.26-.09-1.52-.09a6.21,6.21,0,0,0-4.55,1.63,6.56,6.56,0,0,0-1.65,4.88v11h-6.76V164.33h6.46v3.07A7.58,7.58,0,0,1,418.45,164.85Z"/><path class="cls-2" d="M454.58,164.33l-9.83,23.31h-7L428,164.33h7l6.46,15.86,6.67-15.86Z"/><path class="cls-2" d="M460.16,160a3.67,3.67,0,0,1,0-5.37,4.3,4.3,0,0,1,3-1.08,4.36,4.36,0,0,1,3,1,3.33,3.33,0,0,1,1.17,2.6,3.68,3.68,0,0,1-1.17,2.79,4.74,4.74,0,0,1-6.07,0Zm-.34,4.34h6.76v23.31h-6.76Z"/><path class="cls-2" d="M478,186.45a11.75,11.75,0,0,1,0-20.93,14.29,14.29,0,0,1,6.7-1.54,12.91,12.91,0,0,1,6.43,1.54,9.08,9.08,0,0,1,4,4.4l-5.24,2.81a5.74,5.74,0,0,0-5.25-3.2,5.93,5.93,0,0,0-4.37,1.73,7.29,7.29,0,0,0,0,9.45,5.89,5.89,0,0,0,4.37,1.73,5.69,5.69,0,0,0,5.25-3.2l5.24,2.86a9.28,9.28,0,0,1-4,4.33,12.81,12.81,0,0,1-6.43,1.56A14.29,14.29,0,0,1,478,186.45Z"/><path class="cls-2" d="M521.94,177.89H504.3a5.52,5.52,0,0,0,2.25,3.43,7.53,7.53,0,0,0,4.42,1.25,9,9,0,0,0,3.23-.54,7.79,7.79,0,0,0,2.62-1.71l3.6,3.9Q517.14,188,510.8,188a15.17,15.17,0,0,1-7-1.54,11.27,11.27,0,0,1-4.68-4.27,11.72,11.72,0,0,1-1.65-6.19,11.94,11.94,0,0,1,1.63-6.18,11.29,11.29,0,0,1,4.46-4.29,13.84,13.84,0,0,1,12.55-.07,10.82,10.82,0,0,1,4.36,4.23,12.62,12.62,0,0,1,1.58,6.39C522.07,176.16,522,176.77,521.94,177.89Zm-15.82-7.5a5.56,5.56,0,0,0-1.91,3.56H515.7a5.56,5.56,0,0,0-1.91-3.53,5.66,5.66,0,0,0-3.81-1.33A5.85,5.85,0,0,0,506.12,170.39Z"/><path class="cls-2" d="M142.87,213.7A83.24,83.24,0,1,1,210.55,82.16a3.25,3.25,0,0,0,4,1h0a3.26,3.26,0,0,0,1.29-4.84,89.75,89.75,0,1,0-1,105.57,3.26,3.26,0,0,0-.7-4.58h0a3.25,3.25,0,0,0-4.51.68A83.15,83.15,0,0,1,142.87,213.7Z"/><circle class="cls-2" cx="191.45" cy="170.72" r="4.39"/><circle class="cls-2" cx="202.61" cy="170.72" r="4.39"/><circle class="cls-2" cx="213.76" cy="170.72" r="4.39"/></svg>