<svg id="Layer_1" data-name="Layer 1" xmlns="http://www.w3.org/2000/svg" viewBox="0 0 841.89 260.92"><defs><style>.cls-1{fill:#231f20;}.cls-2{fill:#fff;}</style></defs><rect class="cls-1" width="841.89" height="260.92"/><path class="cls-2" d="M363,127.68a.81.81,0,0,0-1.08.49l-8.06,23.58-2,5.79a.81.81,0,0,0,.77,1.08h14.24a.81.81,0,0,0,.77-.56l4.27-13.17.2-.64h1.84a.76.76,0,0,0,.21,0l.66-.17a.82.82,0,0,0,.62-.87L374.3,131.4a.82.82,0,0,0-.68-.71A47.07,47.07,0,0,1,363,127.68Z"/><path class="cls-2" d="M410.51,151.75l-8.06-23.58a.81.81,0,0,0-1.08-.49,47.07,47.07,0,0,1-10.65,3,.82.82,0,0,0-.68.71l-1.13,11.78a.83.83,0,0,0,.63.87l.66.17a.64.64,0,0,0,.2,0h1.84l.21.64,4.26,13.17a.82.82,0,0,0,.77.56h14.25a.81.81,0,0,0,.76-1.08Z"/><path class="cls-2" d="M389.86,91.35a1.37,1.37,0,0,0-1.29-.92H375.78a1.37,1.37,0,0,0-1.3.92l-9.83,28.74a1.35,1.35,0,0,0,.82,1.72,49.86,49.86,0,0,0,16.42,2.71h.56a49.86,49.86,0,0,0,16.42-2.71,1.35,1.35,0,0,0,.82-1.72Zm-7.69,27.46a5.19,5.19,0,0,1-5.05-6.34,5.18,5.18,0,0,1,10.23,1.16A5.19,5.19,0,0,1,382.17,118.81Z"/><path class="cls-2" d="M453,143.89a17.17,17.17,0,0,1-1.31,4.34,19,19,0,0,1-6.36,7.91l0,0q-.71.48-1.47.93c-11.81,7.12-20.86,3.29-25.76-.28a16.35,16.35,0,0,1-4.07-3.76.06.06,0,0,1,0,0,7.34,7.34,0,0,1-1.35-3.1,1.88,1.88,0,0,1,.16-1c.63-1.37,2.55-4.68,5.26-1.19,0,0,6.58,10.18,16.15,7.37l.12,0a1.34,1.34,0,0,0,.68-.49.26.26,0,0,0,.06-.13c.19-.49.06-1.21-2.19-1.24,0,0-10.29.63-14.41-9.22a1.52,1.52,0,0,1-.07-.94c.26-1,1.11-3.11,3.52-2.78a3.46,3.46,0,0,1,2.39,1.67c1.4,2.29,5.3,7.33,11.31,5.19,0,0,7.21-2.44,5.48-13.51,0,0-1.49-8.94-13.22-5.78h-3.7a1.25,1.25,0,0,1-1.24-1.24v-8.24a1.2,1.2,0,0,1,.3-.81l11.15-13.15a1.16,1.16,0,0,0-.89-1.92H414a1.17,1.17,0,0,1-1.18-1.17V91.61A1.18,1.18,0,0,1,414,90.43h36.39a1.17,1.17,0,0,1,1.17,1.18v9a1.22,1.22,0,0,1-.25.73L437.77,118.5a.16.16,0,0,0,.14.27C440.67,118.61,457,118.64,453,143.89Z"/><path class="cls-2" d="M469.61,138.76c1.38,6.84,5.72,9.83,12.7,9.83s9.94-3.1,9.94-8.08c0-5.54-2.91-7.95-13.22-10.65-16.41-4.35-20.47-11.09-20.47-20.28,0-11.87,7.86-19.92,22.14-19.92,16,0,22.39,9.71,23.26,19.67H490.82c-.63-4.19-2.69-8.74-10.46-8.74-5.29,0-8.49,2.47-8.49,7.3s2.56,6.66,12.31,9.21c17.54,4.66,21.39,12,21.39,21.62,0,12.43-8.34,21-24.28,21-15.31,0-23.37-8.51-24.82-20.92Z"/><path class="cls-2" d="M426.15,213.7A83.24,83.24,0,1,1,493.83,82.16a3.25,3.25,0,0,0,4,1h0a3.26,3.26,0,0,0,1.28-4.84,89.75,89.75,0,1,0-1,105.57,3.25,3.25,0,0,0-.7-4.58h0a3.24,3.24,0,0,0-4.5.68A83.17,83.17,0,0,1,426.15,213.7Z"/><circle class="cls-2" cx="474.73" cy="170.72" r="4.39"/><circle class="cls-2" cx="485.88" cy="170.72" r="4.39"/><circle class="cls-2" cx="497.04" cy="170.72" r="4.39"/></svg>